<?xml version="1.0" encoding="utf-8"?>
<!DOCTYPE svg PUBLIC "-//W3C//DTD SVG 1.1//EN" "http://www.w3.org/Graphics/SVG/1.1/DTD/svg11.dtd">
<svg version="1.1" id="Layer_1" xmlns="http://www.w3.org/2000/svg" xmlns:xlink="http://www.w3.org/1999/xlink" x="0px" y="0px"
	viewBox="0 0 183.71 47.83" enable-background="new 0 0 183.71 47.83" xml:space="preserve">
<path fill="#FFFFFF" stroke="#FFFFFF" stroke-width="2.5" stroke-miterlimit="10" d="M4.354,35.649
	c0.322,0.514,0.668,1.02,1.041,1.514c3.155,4.09,7.186,6.93,11.709,8.811c0.464,0.197,1.112,0.359,1.568,0.525
	c0.446-0.162,1.07-0.32,1.531-0.51l0.306-0.104c0.29-0.135,0.557-0.271,0.836-0.406c1.448-0.666,2.839-1.436,4.162-2.32
	c0.051-0.033,0.099-0.07,0.15-0.104c0.366-0.248,0.732-0.498,1.087-0.766c1.945-1.434,3.624-3.074,5.208-5.127
	c0.444-0.59,0.833-1.184,1.197-1.779l0.366-0.623c0.021-0.037,0.037-0.074,0.057-0.111c0.165-0.299,0.318-0.6,0.464-0.904
	c0.072-0.146,0.14-0.297,0.208-0.447c0.119-0.264,0.238-0.529,0.344-0.797c1.027-2.549,1.531-5.299,1.507-8.203
	c0,0-0.013-15.315-0.064-20.705c-0.337-0.097-0.696-0.183-1.046-0.273c-0.579-0.17-1.339-0.344-2.209-0.516
	c-3.563-0.746-7.525-1.215-11.154-1.425L21.6,1.375c0,0-1.925-0.136-3.583-0.117l0.003-0.007C12.742,1.228,6.256,2.173,1.315,3.593
	C1.263,8.982,1.25,24.298,1.25,24.298c-0.031,3.783,0.826,7.309,2.579,10.463C3.83,34.761,4.094,35.245,4.354,35.649z"/>
<path fill="#FFFFFF" d="M71.504,11.031h-1.14c-0.147-5.584-2.393-8.165-7.595-8.165c-7.482,0-8.508,6.494-8.508,12.836
	c0,5.354,0.608,12.873,7.861,12.873c5.278,0,8.059-3.633,8.203-9.037h1.139v7.518c-3.418,1.861-6.38,2.697-9.455,2.697
	c-8.241,0-12.76-5.886-12.76-14.051c0-8.089,5.05-14.013,13.291-14.013c3,0,6.189,0.911,8.963,2.202V11.031z"/>
<path fill="#FFFFFF" d="M80.121,18.322c1.558-0.379,2.735-0.722,4.178-1.216v-1.595c0-2.62-0.456-4.329-2.963-4.329
	c-1.896,0-3.057,0.57-3.057,3.076c0,1.481-0.57,2.173-1.899,2.173c-0.986,0-1.878-0.464-1.878-1.603
	c0-3.646,3.684-4.596,6.721-4.596c5.811,0,6.95,2.393,6.95,5.545v9.645c0,2.887,0.872,2.926,2.999,2.926v0.947h-2.885
	c-2.127,0-3.609-0.189-4.217-2.467c-1.48,2.277-3.342,2.924-5.848,2.924c-3.949,0-5.202-2.051-5.202-5.507
	c0-3.151,1.632-4.633,4.823-5.392L80.121,18.322z M80.35,19.348c-2.277,0.684-3,1.519-3,4.861c0,2.315,0.418,4.366,2.469,4.366
	c3.303,0,4.48-4.177,4.48-6.76V18.17L80.35,19.348z"/>
<path fill="#FFFFFF" d="M93.865,11.639H90.6v-0.95h7.139v4.368h0.076c0.797-2.202,2.43-4.823,5.316-4.823
	c2.24,0,3.457,1.443,3.457,3.646c0,1.52-0.607,2.544-1.975,2.544c-1.025,0-1.898-0.759-1.898-1.936c0-0.532,0.189-1.443,0.189-1.938
	c0-0.531-0.381-0.949-0.951-0.949c-1.975,0-4.215,4.329-4.215,8.431v8.317h3.154v0.947h-10.24v-0.947h3.213V11.639z"/>
<path fill="#FFFFFF" d="M105.471,2.146h7.139v26.203h3.266v0.947h-10.404v-0.947h3.264V3.095h-3.264V2.146z"/>
<path fill="#FFFFFF" d="M119.322,18.816v0.304c0,5.316,0.721,9.455,5.619,9.455c3.455,0,5.203-2.127,6.191-4.86l0.834,0.304
	c-1.633,4.404-4.215,5.734-8.393,5.734c-5.697,0-8.582-4.406-8.582-9.76c0-5.126,3.303-9.76,8.848-9.76
	c4.861,0,8.164,3.494,8.164,8.583H119.322z M127.447,17.639c0-2.734-0.152-6.456-4.023-6.456c-3.268,0-4.102,4.102-4.102,6.456
	H127.447z"/>
<path fill="#FFFFFF" d="M132.051,10.688h2.621v-5.05h3.873v5.05h4.215v0.95h-4.215v13.216c0,2.24,0.455,3.303,2.012,3.303
	c1.443,0,2.053-1.062,2.658-2.279l0.873,0.381l-0.34,0.684c-0.76,1.367-2.053,2.582-4.785,2.582c-3.951,0-4.291-2.24-4.291-4.67
	V11.639h-2.621V10.688z"/>
<path fill="#FFFFFF" d="M152.523,10.233c6.758,0,8.848,5.924,8.848,9.76s-2.09,9.76-8.848,9.76c-6.762,0-8.85-5.924-8.85-9.76
	S145.762,10.233,152.523,10.233z M152.523,28.804c4.48,0,4.518-4.823,4.518-8.811s-0.037-8.811-4.518-8.811
	c-4.482,0-4.52,4.823-4.52,8.811S148.041,28.804,152.523,28.804z"/>
<path fill="#FFFFFF" d="M164.607,28.349v-16.71h-3.264v-0.95h7.139v3.57h0.076c1.176-2.582,3.455-4.025,6.57-4.025
	c3.721,0,5.58,1.557,5.58,5.355v12.76h3.002v0.947h-9.875v-0.947h3v-12.57c0-2.089-0.379-4.178-3.037-4.178
	c-3.533,0-5.316,3.342-5.316,6.873v9.875h3v0.947h-10.139v-0.947H164.607z"/>
<path fill="#FFFFFF" d="M60.418,42.661c0,1.967-1.321,3.426-3.859,3.426c-2.551,0-3.871-1.459-3.871-3.426v-5.119h2.021v5.049
	c0,1.023,0.776,1.801,1.851,1.801c1.062,0,1.839-0.777,1.839-1.801v-5.049h2.021V42.661z"/>
<path fill="#FFFFFF" d="M68.106,37.542h2.744l3.897,5.791h0.025v-5.791h2.02v8.332h-2.641l-4.001-5.932h-0.024v5.932h-2.021V37.542z
	"/>
<path fill="#FFFFFF" d="M84.521,37.542h2.019v8.332h-2.019V37.542z"/>
<path fill="#FFFFFF" d="M93.234,37.542h2.303l2.266,5.461h0.025l2.305-5.461h2.164l-3.781,8.332h-1.619L93.234,37.542z"/>
<path fill="#FFFFFF" d="M108.312,37.542h6.229v1.695h-4.207v1.553h3.975v1.695h-3.975v1.695h4.441v1.693h-6.463V37.542z"/>
<path fill="#FFFFFF" d="M122.346,37.542h3.549c1.877,0,3.455,0.588,3.455,2.531c0,1.164-0.686,2.07-1.98,2.283l2.33,3.518h-2.42
	l-1.918-3.33h-0.996v3.33h-2.02V37.542z M124.365,40.991h1.191c0.736,0,1.695-0.023,1.695-0.93c0-0.836-0.83-0.965-1.566-0.965
	h-1.32V40.991z"/>
<path fill="#FFFFFF" d="M141.674,39.577c-0.324-0.375-0.971-0.551-1.463-0.551c-0.568,0-1.361,0.234-1.361,0.857
	c0,1.518,4.223,0.541,4.223,3.461c0,1.859-1.645,2.742-3.535,2.742c-1.178,0-2.213-0.318-3.08-1.047l1.438-1.438
	c0.412,0.496,1.086,0.789,1.76,0.789c0.66,0,1.396-0.281,1.396-0.871c0-1.529-4.297-0.705-4.297-3.482
	c0-1.777,1.697-2.707,3.496-2.707c1.035,0,2.031,0.246,2.809,0.869L141.674,39.577z"/>
<path fill="#FFFFFF" d="M150.566,37.542h2.021v8.332h-2.021V37.542z"/>
<path fill="#FFFFFF" d="M161.959,39.167h-2.615v-1.625h7.25v1.625h-2.615v6.707h-2.02V39.167z"/>
<path fill="#FFFFFF" d="M175.564,42.321l-3.443-4.779h2.512l1.941,3.119l2.059-3.119h2.396l-3.445,4.779v3.553h-2.02V42.321z"/>
<g>
	<path d="M30.199,24.441l-0.438-0.144l-0.095-0.458l-0.753-0.294c-2.052-0.713-4.155-1.288-6.326-1.495
		c-1.399-0.133-2.815-0.029-3.89,0.663c-1.071-0.692-2.486-0.796-3.885-0.663c-2.172,0.207-4.279,0.782-6.333,1.495L7.724,23.84
		l-0.097,0.458l-0.439,0.144L4.73,34.704c1.386-0.256,4.24-0.67,5.822-0.834c1.968-0.221,3.644-0.303,5.866-0.229
		c-0.01,0.09-0.036,0.162,0.02,0.252c0.257,0.246,0.776,0.223,1.19,0.26c0.431,0.018,0.622,0.023,1.045,0.027
		c0.424,0.004,0.616-0.01,1.046-0.027c0.415-0.037,0.934-0.014,1.192-0.26c0.055-0.09,0.03-0.162,0.02-0.252
		c2.223-0.074,3.899,0.008,5.865,0.229c1.581,0.164,4.433,0.578,5.819,0.834L30.199,24.441z M18.399,32.165
		c-1.144-0.613-2.571-0.703-3.961-0.625c-2.97,0.189-5.64,0.844-8.436,1.795l2.14-9.281c2.147-0.817,4.403-1.466,6.737-1.663
		c1.528-0.094,2.844,0.1,3.6,0.643L18.399,32.165z M22.919,31.54c-1.389-0.078-2.817,0.012-3.964,0.625l-0.042-9.132
		c0.758-0.543,2.075-0.736,3.603-0.643c2.333,0.197,4.587,0.846,6.731,1.663l2.101,9.281C28.557,32.384,25.889,31.729,22.919,31.54z
		"/>
	<path d="M19.338,1.276l2.438,4.9l0.007,0.018c0.009,0.021,0.042,0.086,0.129,0.238c0.082-0.031,0.16-0.062,0.239-0.096
		c0.11-0.062,4.084-2.322,4.084-2.322s-1.762,8.65-1.934,9.493c0.781-0.821,3.943-4.148,3.943-4.148s1.345,2.558,1.66,3.155
		c0.054-0.008,0.433-0.072,0.433-0.072l-0.215,0.035l4.846-1.332l-1.542,5.439c0,0-0.021,0.036-0.029,0.047l0.004,0.001
		c0,0-0.018,0.055-0.02,0.063c0.001-0.002,0.015-0.021,0.015-0.021s-0.127,0.383-0.184,0.555c-0.023,0.07-0.076,0.243-0.091,0.287
		c0.294,0.152,2.481,1.28,2.481,1.28s-2.831,2.509-5.156,4.57c0.023,0.108,0.049,0.237,0.056,0.266
		c0.061,0.021,0.425,0.14,0.425,0.14l2.585,10.988c1.755-3.152,2.612-6.68,2.581-10.463c0,0-0.013-15.315-0.064-20.705
		C31.092,2.174,24.615,1.431,19.338,1.276"/>
	<path d="M18.672,46.499c0.457-0.166,1.104-0.328,1.568-0.525c4.525-1.881,8.556-4.721,11.71-8.811c0.372-0.494,0.717-1,1.04-1.514
		l-0.532-0.098c-1.425-0.262-4.274-0.67-5.758-0.826c-0.163-0.018-0.322-0.033-0.479-0.051c-0.033-0.002-0.065-0.006-0.097-0.008
		c-0.159-0.018-0.316-0.033-0.471-0.047c-0.002,0-0.004,0-0.006,0c-0.16-0.014-0.318-0.027-0.474-0.039
		c-0.013,0-0.026-0.002-0.038-0.002c-0.161-0.014-0.32-0.023-0.478-0.033l0,0c-1.03-0.064-2.018-0.082-3.121-0.059
		c-0.014,0.014-0.03,0.031-0.03,0.031c-0.439,0.418-1.049,0.453-1.495,0.479l-0.248,0.018l-0.252,0.012l-0.845,0.018l-1.073-0.027
		l-0.259-0.02c-0.445-0.025-1.056-0.061-1.495-0.48c0,0-0.016-0.016-0.028-0.029c-0.936-0.02-1.79-0.01-2.658,0.031
		c-0.199,0.012-0.399,0.023-0.601,0.035c-0.003,0-0.007,0.002-0.011,0.002c-0.098,0.006-0.195,0.012-0.294,0.02
		c-0.006,0-0.013,0.002-0.02,0.002c-0.096,0.008-0.19,0.016-0.288,0.023c-0.015,0-0.03,0.002-0.046,0.004
		c-0.088,0.008-0.176,0.014-0.266,0.021c-0.029,0.004-0.058,0.006-0.086,0.01c-0.078,0.008-0.155,0.014-0.234,0.021
		c-0.05,0.004-0.101,0.01-0.151,0.016c-0.059,0.006-0.118,0.012-0.177,0.018c-0.111,0.012-0.224,0.025-0.338,0.035
		C9.16,34.882,6.31,35.29,4.887,35.552l-0.533,0.098c0.322,0.514,0.668,1.02,1.041,1.514c3.155,4.09,7.186,6.93,11.709,8.811
		C17.568,46.171,18.216,46.333,18.672,46.499"/>
	<path d="M18.021,1.251C12.742,1.228,6.256,2.173,1.315,3.593C1.263,8.982,1.25,24.298,1.25,24.298
		c-0.031,3.783,0.826,7.309,2.579,10.463L6.46,23.771c0,0,0.37-0.12,0.426-0.139c0.005-0.024,0.028-0.131,0.049-0.231
		c-2.332-2.067-5.193-4.604-5.193-4.604s2.187-1.128,2.48-1.28c-0.014-0.044-0.073-0.229-0.103-0.324
		c-0.051-0.154-0.106-0.32-0.14-0.422c-0.001-0.002-0.014-0.019-0.014-0.019l-1.589-5.606l4.847,1.332l-0.21-0.033
		c0.042,0.006,0.376,0.062,0.428,0.07c0.314-0.598,1.659-3.155,1.659-3.155s3.159,3.325,3.941,4.147
		c-0.172-0.845-1.933-9.492-1.933-9.492s3.977,2.26,4.086,2.322c0.079,0.033,0.157,0.064,0.238,0.096
		c0.09-0.158,0.121-0.221,0.128-0.235l0.008-0.019l2.167-4.355L18.021,1.251"/>
	<path fill="#AA1F23" d="M5.306,17.688c-0.018,0.258-0.259,0.55-0.397,0.652l-1.331,0.686l4.312,3.823l0.289-0.112l0.015-0.006
		c2.482-0.862,4.559-1.352,6.535-1.539c1.625-0.155,2.928,0.022,3.967,0.536c1.042-0.514,2.347-0.691,3.971-0.536
		c1.975,0.188,4.049,0.677,6.527,1.539l0.015,0.006l0.257,0.101l4.299-3.812l-1.33-0.686c-0.138-0.103-0.38-0.395-0.397-0.652
		c-0.004-0.076-0.014-0.068-0.021-0.046c0.001-0.007,0.002-0.013,0.003-0.021c0.025-0.152,0-0.12,0.139-0.532
		c-0.011,0.011,0.253-0.783,0.26-0.789l1.036-3.652l-3.056,0.84c-0.167,0.01-0.321,0.068-0.486,0.092
		c-0.287,0.041-0.518,0.08-0.688-0.109l-1.226-2.332l-3.489,3.67l-0.277,0.275c-0.587,0.445-1.417-0.035-1.054-1.305l1.572-7.717
		L22.61,7.279c-0.288,0.12-0.537,0.218-0.933,0.343c-0.131,0.041-0.262-0.043-0.35-0.126c-0.152-0.249-0.41-0.675-0.498-0.869
		l-2.157-4.339l-2.159,4.339c-0.087,0.194-0.344,0.62-0.496,0.868c-0.088,0.084-0.219,0.168-0.35,0.127
		c-0.397-0.125-0.645-0.223-0.933-0.343l-2.141-1.218l1.571,7.717c0.362,1.27-0.467,1.75-1.054,1.305l-0.276-0.275l-3.489-3.67
		L8.121,13.47c-0.172,0.189-0.403,0.15-0.688,0.109c-0.165-0.023-0.318-0.082-0.485-0.092l-3.057-0.84L4.925,16.3
		c0.007,0.006,0.272,0.8,0.26,0.789c0.138,0.412,0.113,0.38,0.138,0.532c0.001,0.007,0.002,0.012,0.003,0.017
		C5.319,17.619,5.31,17.616,5.306,17.688z M21.295,7.463C21.207,7.37,21.184,7.304,21.295,7.463L21.295,7.463z M16.051,7.462
		C16.162,7.304,16.139,7.37,16.051,7.462L16.051,7.462z"/>
	<path d="M17.224,25.3c-1.221-0.517-2.637-0.357-3.926-0.135c-1.523,0.264-2.23,0.455-3.907,1.018l0.094-0.418
		c0,0,2.112-0.822,4.965-1.156c0,0,1.64-0.206,2.774,0.295V25.3L17.224,25.3z"/>
	<path d="M17.224,27.146c-1.221-0.516-2.637-0.357-3.926-0.135c-1.523,0.266-2.614,0.434-4.341,1.008l0.094-0.418
		c0,0,2.546-0.812,5.399-1.145c0,0,1.64-0.209,2.774,0.295V27.146L17.224,27.146z"/>
	<path d="M17.224,29.019c-1.221-0.518-2.637-0.359-3.926-0.137c-1.523,0.264-3.07,0.672-4.819,1.258l0.094-0.418
		c0,0,3.024-1.062,5.877-1.396c0,0,1.64-0.207,2.774,0.295V29.019L17.224,29.019z"/>
	<path d="M20.077,25.3c1.221-0.517,2.637-0.357,3.926-0.135c1.523,0.264,2.23,0.455,3.908,1.018l-0.094-0.418
		c0,0-2.112-0.822-4.965-1.156c0,0-1.64-0.206-2.774,0.295V25.3L20.077,25.3z"/>
	<path d="M20.077,27.146c1.221-0.516,2.637-0.357,3.926-0.135c1.523,0.266,2.614,0.434,4.342,1.008l-0.095-0.418
		c0,0-2.546-0.812-5.398-1.145c0,0-1.64-0.209-2.774,0.295V27.146L20.077,27.146z"/>
	<path d="M20.077,29.019c1.221-0.518,2.637-0.359,3.926-0.137c1.523,0.264,3.071,0.672,4.819,1.258l-0.093-0.418
		c0,0-3.024-1.062-5.877-1.396c0,0-1.64-0.207-2.774,0.295V29.019L20.077,29.019z"/>
</g>
</svg>
